%
M48
M72
T01C0.0315
T02C0.0354
%
T01
X4636Y8870
X4636Y9657
X4636Y10444
X4636Y11232
X4636Y12019
X4636Y12807
X4636Y13594
X4636Y14381
X4636Y15169
X4636Y15956
X13297Y15956
X13297Y15169
X13297Y14381
X13297Y13594
X13297Y12807
X13297Y12019
X13297Y11232
X13297Y10444
X13297Y9657
X13297Y8870
T02
X2467Y10913
X1467Y10913
X1467Y11913
X2467Y11913
X2467Y12913
X1467Y12913
M30
