G75*
G70*
%OFA0B0*%
%FSLAX24Y24*%
%IPPOS*%
%LPD*%
%AMOC8*
5,1,8,0,0,1.08239X$1,22.5*
%
%ADD10C,0.0000*%
%ADD11C,0.0640*%
%ADD12C,0.0515*%
%ADD13C,0.0120*%
D10*
X000717Y006913D02*
X000717Y016909D01*
X014087Y016909D01*
X014087Y006913D01*
X000717Y006913D01*
D11*
X001467Y010913D03*
X002467Y010913D03*
X002467Y011913D03*
X001467Y011913D03*
X001467Y012913D03*
X002467Y012913D03*
D12*
X004636Y012807D03*
X004636Y013594D03*
X004636Y014381D03*
X004636Y015169D03*
X004636Y015956D03*
X004636Y012019D03*
X004636Y011232D03*
X004636Y010444D03*
X004636Y009657D03*
X004636Y008870D03*
X013297Y008870D03*
X013297Y009657D03*
X013297Y010444D03*
X013297Y011232D03*
X013297Y012019D03*
X013297Y012807D03*
X013297Y013594D03*
X013297Y014381D03*
X013297Y015169D03*
X013297Y015956D03*
D13*
X012932Y015801D02*
X005002Y015801D01*
X004973Y015731D02*
X005033Y015877D01*
X005033Y016035D01*
X004973Y016181D01*
X004861Y016293D01*
X004715Y016354D01*
X004557Y016354D01*
X004411Y016293D01*
X004299Y016181D01*
X004289Y016156D01*
X003677Y016156D01*
X000877Y016156D01*
X000877Y016038D02*
X003558Y016038D01*
X003560Y016039D02*
X002267Y014746D01*
X002267Y013328D01*
X002206Y013303D01*
X002077Y013174D01*
X002007Y013004D01*
X002007Y012821D01*
X002077Y012652D01*
X002116Y012613D01*
X002050Y012613D01*
X001902Y012761D01*
X001927Y012821D01*
X001927Y013004D01*
X001857Y013174D01*
X001727Y013303D01*
X001558Y013373D01*
X001375Y013373D01*
X001206Y013303D01*
X001077Y013174D01*
X001007Y013004D01*
X001007Y012821D01*
X001077Y012652D01*
X001206Y012523D01*
X001375Y012453D01*
X001558Y012453D01*
X001619Y012478D01*
X001767Y012330D01*
X001884Y012213D01*
X002116Y012213D01*
X002077Y012174D01*
X002007Y012004D01*
X002007Y011906D01*
X001927Y011986D01*
X001927Y012004D01*
X001857Y012174D01*
X001727Y012303D01*
X001558Y012373D01*
X001375Y012373D01*
X001206Y012303D01*
X001077Y012174D01*
X001007Y012004D01*
X001007Y011821D01*
X001077Y011652D01*
X001206Y011523D01*
X001375Y011453D01*
X001558Y011453D01*
X001727Y011523D01*
X001767Y011562D01*
X001767Y011264D01*
X001727Y011303D01*
X001558Y011373D01*
X001375Y011373D01*
X001206Y011303D01*
X001077Y011174D01*
X001007Y011004D01*
X001007Y010821D01*
X001077Y010652D01*
X001206Y010523D01*
X001267Y010498D01*
X001267Y008330D01*
X002017Y007580D01*
X002134Y007463D01*
X005050Y007463D01*
X005800Y008213D01*
X005917Y008330D01*
X005917Y012496D01*
X005523Y012890D01*
X005406Y013007D01*
X004983Y013007D01*
X004973Y013032D01*
X004861Y013144D01*
X004724Y013200D01*
X004861Y013257D01*
X004973Y013369D01*
X005033Y013515D01*
X005033Y013673D01*
X004973Y013819D01*
X004861Y013931D01*
X004724Y013988D01*
X004861Y014045D01*
X004973Y014156D01*
X005033Y014302D01*
X005033Y014461D01*
X004973Y014607D01*
X004861Y014718D01*
X004724Y014775D01*
X004861Y014832D01*
X004973Y014944D01*
X005033Y015090D01*
X005033Y015248D01*
X004973Y015394D01*
X004861Y015506D01*
X004724Y015563D01*
X004861Y015619D01*
X004973Y015731D01*
X004924Y015682D02*
X013010Y015682D01*
X012960Y015731D02*
X013072Y015619D01*
X013209Y015563D01*
X013072Y015506D01*
X012960Y015394D01*
X012900Y015248D01*
X012900Y015090D01*
X012960Y014944D01*
X013072Y014832D01*
X013209Y014775D01*
X013072Y014718D01*
X012960Y014607D01*
X012900Y014461D01*
X012900Y014302D01*
X012960Y014156D01*
X013072Y014045D01*
X013209Y013988D01*
X013072Y013931D01*
X012960Y013819D01*
X012900Y013673D01*
X012900Y013515D01*
X012960Y013369D01*
X013072Y013257D01*
X013209Y013200D01*
X013072Y013144D01*
X012960Y013032D01*
X012900Y012886D01*
X012900Y012728D01*
X012960Y012582D01*
X013072Y012470D01*
X013209Y012413D01*
X013072Y012356D01*
X012960Y012244D01*
X012900Y012098D01*
X012900Y011940D01*
X012960Y011794D01*
X013072Y011682D01*
X013209Y011626D01*
X013072Y011569D01*
X012960Y011457D01*
X012900Y011311D01*
X012900Y011153D01*
X012960Y011007D01*
X013072Y010895D01*
X013209Y010838D01*
X013072Y010781D01*
X012960Y010670D01*
X012900Y010524D01*
X012900Y010365D01*
X012960Y010219D01*
X013072Y010108D01*
X013209Y010051D01*
X013072Y009994D01*
X005917Y009994D01*
X005917Y010112D02*
X013067Y010112D01*
X013072Y009994D02*
X012960Y009882D01*
X012900Y009736D01*
X012900Y009578D01*
X012960Y009432D01*
X013072Y009320D01*
X013209Y009263D01*
X013072Y009207D01*
X012960Y009095D01*
X012900Y008949D01*
X012900Y008791D01*
X012960Y008645D01*
X013072Y008533D01*
X013218Y008472D01*
X013376Y008472D01*
X013523Y008533D01*
X013634Y008645D01*
X013695Y008791D01*
X013695Y008949D01*
X013634Y009095D01*
X013523Y009207D01*
X013386Y009263D01*
X013523Y009320D01*
X013634Y009432D01*
X013695Y009578D01*
X013695Y009736D01*
X013634Y009882D01*
X013523Y009994D01*
X013717Y009994D01*
X013717Y010112D02*
X013528Y010112D01*
X013523Y010108D02*
X013634Y010219D01*
X013695Y010365D01*
X013695Y010524D01*
X013634Y010670D01*
X013523Y010781D01*
X013386Y010838D01*
X013523Y010895D01*
X013634Y011007D01*
X013695Y011153D01*
X013695Y011311D01*
X013634Y011457D01*
X013523Y011569D01*
X013386Y011626D01*
X013523Y011682D01*
X013634Y011794D01*
X013695Y011940D01*
X013695Y012098D01*
X013634Y012244D01*
X013523Y012356D01*
X013386Y012413D01*
X013523Y012470D01*
X013634Y012582D01*
X013695Y012728D01*
X013695Y012886D01*
X013634Y013032D01*
X013523Y013144D01*
X013386Y013200D01*
X013523Y013257D01*
X013634Y013369D01*
X013695Y013515D01*
X013695Y013673D01*
X013634Y013819D01*
X013523Y013931D01*
X013386Y013988D01*
X013523Y014045D01*
X013634Y014156D01*
X013695Y014302D01*
X013695Y014461D01*
X013634Y014607D01*
X013523Y014718D01*
X013386Y014775D01*
X013523Y014832D01*
X013634Y014944D01*
X013695Y015090D01*
X013695Y015248D01*
X013634Y015394D01*
X013523Y015506D01*
X013386Y015563D01*
X013523Y015619D01*
X013634Y015731D01*
X013695Y015877D01*
X013695Y016035D01*
X013634Y016181D01*
X013523Y016293D01*
X013376Y016354D01*
X013218Y016354D01*
X013072Y016293D01*
X012960Y016181D01*
X012900Y016035D01*
X012900Y015877D01*
X012960Y015731D01*
X012900Y015919D02*
X005033Y015919D01*
X005033Y016038D02*
X012901Y016038D01*
X012950Y016156D02*
X004983Y016156D01*
X004880Y016275D02*
X013053Y016275D01*
X013541Y016275D02*
X013717Y016275D01*
X013717Y016393D02*
X000877Y016393D01*
X000877Y016275D02*
X004392Y016275D01*
X004636Y015956D02*
X003760Y015956D01*
X002467Y014663D01*
X002467Y012913D01*
X002897Y013075D02*
X004342Y013075D01*
X004299Y013032D02*
X004238Y012886D01*
X004238Y012728D01*
X004299Y012582D01*
X004411Y012470D01*
X004548Y012413D01*
X004411Y012356D01*
X004299Y012244D01*
X004238Y012098D01*
X004238Y011940D01*
X004299Y011794D01*
X004411Y011682D01*
X004548Y011626D01*
X004411Y011569D01*
X004299Y011457D01*
X004272Y011391D01*
X003050Y012613D01*
X002817Y012613D01*
X002857Y012652D01*
X002927Y012821D01*
X002927Y013004D01*
X002857Y013174D01*
X002727Y013303D01*
X002667Y013328D01*
X002667Y014580D01*
X003843Y015756D01*
X004289Y015756D01*
X004299Y015731D01*
X004411Y015619D01*
X004548Y015563D01*
X004411Y015506D01*
X004299Y015394D01*
X004238Y015248D01*
X004238Y015090D01*
X004299Y014944D01*
X004411Y014832D01*
X004548Y014775D01*
X004411Y014718D01*
X004299Y014607D01*
X004238Y014461D01*
X004238Y014302D01*
X004299Y014156D01*
X004411Y014045D01*
X004548Y013988D01*
X004411Y013931D01*
X004299Y013819D01*
X004238Y013673D01*
X004238Y013515D01*
X004299Y013369D01*
X004411Y013257D01*
X004548Y013200D01*
X004411Y013144D01*
X004299Y013032D01*
X004268Y012957D02*
X002927Y012957D01*
X002927Y012838D02*
X004238Y012838D01*
X004242Y012720D02*
X002884Y012720D01*
X003061Y012601D02*
X004291Y012601D01*
X004398Y012483D02*
X003180Y012483D01*
X003298Y012364D02*
X004430Y012364D01*
X004300Y012246D02*
X003417Y012246D01*
X003535Y012127D02*
X004250Y012127D01*
X004238Y012009D02*
X003654Y012009D01*
X003772Y011890D02*
X004259Y011890D01*
X004322Y011772D02*
X003891Y011772D01*
X004009Y011653D02*
X004482Y011653D01*
X004376Y011535D02*
X004128Y011535D01*
X004246Y011416D02*
X004282Y011416D01*
X004217Y011163D02*
X004567Y011163D01*
X004636Y011232D01*
X004364Y010942D02*
X003970Y010942D01*
X004036Y011061D02*
X003852Y011061D01*
X003918Y011179D02*
X003733Y011179D01*
X003799Y011298D02*
X003615Y011298D01*
X003681Y011416D02*
X003496Y011416D01*
X003562Y011535D02*
X003378Y011535D01*
X003444Y011653D02*
X003259Y011653D01*
X003325Y011772D02*
X003141Y011772D01*
X003207Y011890D02*
X003022Y011890D01*
X002927Y011986D02*
X002927Y012004D01*
X002857Y012174D01*
X002817Y012213D01*
X002884Y012213D01*
X004017Y011080D01*
X004134Y010963D01*
X004343Y010963D01*
X004411Y010895D01*
X004548Y010838D01*
X004411Y010781D01*
X004299Y010670D01*
X004283Y010630D01*
X002927Y011986D01*
X002925Y012009D02*
X003088Y012009D01*
X002970Y012127D02*
X002876Y012127D01*
X002967Y012413D02*
X004217Y011163D01*
X004089Y010824D02*
X004512Y010824D01*
X004334Y010705D02*
X004207Y010705D01*
X004217Y010413D02*
X004604Y010413D01*
X004636Y010444D01*
X005007Y010586D02*
X005267Y010586D01*
X005267Y010468D02*
X005033Y010468D01*
X005033Y010524D02*
X004973Y010670D01*
X004861Y010781D01*
X004724Y010838D01*
X004861Y010895D01*
X004973Y011007D01*
X005033Y011153D01*
X005033Y011311D01*
X004973Y011457D01*
X004861Y011569D01*
X004724Y011626D01*
X004861Y011682D01*
X004888Y011709D01*
X005267Y011330D01*
X005267Y008496D01*
X004884Y008113D01*
X003050Y008113D01*
X002167Y008996D01*
X002167Y010562D01*
X002206Y010523D01*
X002375Y010453D01*
X002394Y010453D01*
X004017Y008830D01*
X004134Y008713D01*
X004271Y008713D01*
X004299Y008645D01*
X004411Y008533D01*
X004557Y008472D01*
X004715Y008472D01*
X004861Y008533D01*
X004973Y008645D01*
X005033Y008791D01*
X005033Y008949D01*
X004973Y009095D01*
X004861Y009207D01*
X004724Y009263D01*
X004861Y009320D01*
X004973Y009432D01*
X005033Y009578D01*
X005033Y009736D01*
X004973Y009882D01*
X004861Y009994D01*
X004724Y010051D01*
X004861Y010108D01*
X004973Y010219D01*
X005033Y010365D01*
X005033Y010524D01*
X005027Y010349D02*
X005267Y010349D01*
X005267Y010231D02*
X004978Y010231D01*
X004866Y010112D02*
X005267Y010112D01*
X005267Y009994D02*
X004861Y009994D01*
X004976Y009875D02*
X005267Y009875D01*
X005267Y009757D02*
X005025Y009757D01*
X005033Y009638D02*
X005267Y009638D01*
X005267Y009520D02*
X005009Y009520D01*
X004942Y009401D02*
X005267Y009401D01*
X005267Y009283D02*
X004771Y009283D01*
X004903Y009164D02*
X005267Y009164D01*
X005267Y009046D02*
X004993Y009046D01*
X005033Y008927D02*
X005267Y008927D01*
X005267Y008809D02*
X005033Y008809D01*
X004992Y008690D02*
X005267Y008690D01*
X005267Y008572D02*
X004900Y008572D01*
X005224Y008453D02*
X002709Y008453D01*
X002828Y008335D02*
X005106Y008335D01*
X004987Y008216D02*
X002946Y008216D01*
X002967Y007913D02*
X001967Y008913D01*
X001967Y011663D01*
X001717Y011913D01*
X001467Y011913D01*
X001785Y012246D02*
X001851Y012246D01*
X001767Y012330D02*
X001767Y012330D01*
X001733Y012364D02*
X001580Y012364D01*
X001353Y012364D02*
X000877Y012364D01*
X000877Y012246D02*
X001149Y012246D01*
X001057Y012127D02*
X000877Y012127D01*
X000877Y012009D02*
X001008Y012009D01*
X001007Y011890D02*
X000877Y011890D01*
X000877Y011772D02*
X001027Y011772D01*
X001076Y011653D02*
X000877Y011653D01*
X000877Y011535D02*
X001195Y011535D01*
X001201Y011298D02*
X000877Y011298D01*
X000877Y011416D02*
X001767Y011416D01*
X001767Y011298D02*
X001733Y011298D01*
X001739Y011535D02*
X001767Y011535D01*
X002167Y011535D02*
X002195Y011535D01*
X002206Y011523D02*
X002375Y011453D01*
X002558Y011453D01*
X002727Y011523D01*
X002776Y011571D01*
X004017Y010330D01*
X004134Y010213D01*
X004305Y010213D01*
X004411Y010108D01*
X004548Y010051D01*
X004411Y009994D01*
X004299Y009882D01*
X004238Y009736D01*
X004238Y009578D01*
X004299Y009432D01*
X004411Y009320D01*
X004548Y009263D01*
X004411Y009207D01*
X004317Y009113D01*
X004300Y009113D01*
X002808Y010604D01*
X002857Y010652D01*
X002927Y010821D01*
X002927Y011004D01*
X002857Y011174D01*
X002727Y011303D01*
X002558Y011373D01*
X002375Y011373D01*
X002206Y011303D01*
X002167Y011264D01*
X002167Y011562D01*
X002206Y011523D01*
X002167Y011416D02*
X002931Y011416D01*
X003049Y011298D02*
X002733Y011298D01*
X002851Y011179D02*
X003168Y011179D01*
X003286Y011061D02*
X002903Y011061D01*
X002927Y010942D02*
X003405Y010942D01*
X003523Y010824D02*
X002927Y010824D01*
X002878Y010705D02*
X003642Y010705D01*
X003760Y010586D02*
X002826Y010586D01*
X002944Y010468D02*
X003879Y010468D01*
X003997Y010349D02*
X003063Y010349D01*
X003181Y010231D02*
X004116Y010231D01*
X004217Y010413D02*
X002717Y011913D01*
X002467Y011913D01*
X002057Y012127D02*
X001876Y012127D01*
X001925Y012009D02*
X002008Y012009D01*
X001967Y012413D02*
X002967Y012413D01*
X002837Y013194D02*
X004531Y013194D01*
X004356Y013312D02*
X002705Y013312D01*
X002667Y013431D02*
X004273Y013431D01*
X004238Y013549D02*
X002667Y013549D01*
X002667Y013668D02*
X004238Y013668D01*
X004285Y013786D02*
X002667Y013786D01*
X002667Y013905D02*
X004384Y013905D01*
X004463Y014023D02*
X002667Y014023D01*
X002667Y014142D02*
X004314Y014142D01*
X004256Y014260D02*
X002667Y014260D01*
X002667Y014379D02*
X004238Y014379D01*
X004254Y014497D02*
X002667Y014497D01*
X002702Y014616D02*
X004308Y014616D01*
X004448Y014734D02*
X002821Y014734D01*
X002939Y014853D02*
X004390Y014853D01*
X004288Y014971D02*
X003058Y014971D01*
X003176Y015090D02*
X004239Y015090D01*
X004238Y015208D02*
X003295Y015208D01*
X003413Y015327D02*
X004271Y015327D01*
X004350Y015445D02*
X003532Y015445D01*
X003650Y015564D02*
X004546Y015564D01*
X004726Y015564D02*
X013207Y015564D01*
X013388Y015564D02*
X013717Y015564D01*
X013717Y015682D02*
X013585Y015682D01*
X013663Y015801D02*
X013717Y015801D01*
X013717Y015919D02*
X013695Y015919D01*
X013694Y016038D02*
X013717Y016038D01*
X013717Y016156D02*
X013645Y016156D01*
X013717Y016512D02*
X000877Y016512D01*
X000877Y016630D02*
X013717Y016630D01*
X013717Y016749D02*
X000877Y016749D01*
X013717Y016749D01*
X013717Y007073D01*
X000877Y007073D01*
X000877Y016749D01*
X000877Y015919D02*
X003440Y015919D01*
X003321Y015801D02*
X000877Y015801D01*
X000877Y015682D02*
X003203Y015682D01*
X003084Y015564D02*
X000877Y015564D01*
X000877Y015445D02*
X002966Y015445D01*
X002847Y015327D02*
X000877Y015327D01*
X000877Y015208D02*
X002729Y015208D01*
X002610Y015090D02*
X000877Y015090D01*
X000877Y014971D02*
X002492Y014971D01*
X002373Y014853D02*
X000877Y014853D01*
X000877Y014734D02*
X002267Y014734D01*
X002267Y014616D02*
X000877Y014616D01*
X000877Y014497D02*
X002267Y014497D01*
X002267Y014379D02*
X000877Y014379D01*
X000877Y014260D02*
X002267Y014260D01*
X002267Y014142D02*
X000877Y014142D01*
X000877Y014023D02*
X002267Y014023D01*
X002267Y013905D02*
X000877Y013905D01*
X000877Y013786D02*
X002267Y013786D01*
X002267Y013668D02*
X000877Y013668D01*
X000877Y013549D02*
X002267Y013549D01*
X002267Y013431D02*
X000877Y013431D01*
X000877Y013312D02*
X001228Y013312D01*
X001097Y013194D02*
X000877Y013194D01*
X000877Y013075D02*
X001036Y013075D01*
X001007Y012957D02*
X000877Y012957D01*
X000877Y012838D02*
X001007Y012838D01*
X001049Y012720D02*
X000877Y012720D01*
X000877Y012601D02*
X001128Y012601D01*
X001304Y012483D02*
X000877Y012483D01*
X001467Y012913D02*
X001967Y012413D01*
X001943Y012720D02*
X002049Y012720D01*
X002007Y012838D02*
X001927Y012838D01*
X001927Y012957D02*
X002007Y012957D01*
X002036Y013075D02*
X001897Y013075D01*
X001837Y013194D02*
X002097Y013194D01*
X002228Y013312D02*
X001705Y013312D01*
X002739Y011535D02*
X002812Y011535D01*
X002201Y011298D02*
X002167Y011298D01*
X002467Y010913D02*
X002467Y010663D01*
X004217Y008913D01*
X004593Y008913D01*
X004636Y008870D01*
X004372Y008572D02*
X002591Y008572D01*
X002472Y008690D02*
X004280Y008690D01*
X004038Y008809D02*
X002354Y008809D01*
X002235Y008927D02*
X003919Y008927D01*
X003801Y009046D02*
X002167Y009046D01*
X002167Y009164D02*
X003682Y009164D01*
X003564Y009283D02*
X002167Y009283D01*
X002167Y009401D02*
X003445Y009401D01*
X003327Y009520D02*
X002167Y009520D01*
X002167Y009638D02*
X003208Y009638D01*
X003090Y009757D02*
X002167Y009757D01*
X002167Y009875D02*
X002971Y009875D01*
X002853Y009994D02*
X002167Y009994D01*
X002167Y010112D02*
X002734Y010112D01*
X002616Y010231D02*
X002167Y010231D01*
X002167Y010349D02*
X002497Y010349D01*
X002339Y010468D02*
X002167Y010468D01*
X001767Y010468D02*
X001667Y010468D01*
X001667Y010498D02*
X001727Y010523D01*
X001767Y010562D01*
X001767Y008830D01*
X001884Y008713D01*
X002734Y007863D01*
X002300Y007863D01*
X001667Y008496D01*
X001667Y010498D01*
X001667Y010349D02*
X001767Y010349D01*
X001767Y010231D02*
X001667Y010231D01*
X001667Y010112D02*
X001767Y010112D01*
X001767Y009994D02*
X001667Y009994D01*
X001667Y009875D02*
X001767Y009875D01*
X001767Y009757D02*
X001667Y009757D01*
X001667Y009638D02*
X001767Y009638D01*
X001767Y009520D02*
X001667Y009520D01*
X001667Y009401D02*
X001767Y009401D01*
X001767Y009283D02*
X001667Y009283D01*
X001667Y009164D02*
X001767Y009164D01*
X001767Y009046D02*
X001667Y009046D01*
X001667Y008927D02*
X001767Y008927D01*
X001788Y008809D02*
X001667Y008809D01*
X001667Y008690D02*
X001906Y008690D01*
X002025Y008572D02*
X001667Y008572D01*
X001709Y008453D02*
X002143Y008453D01*
X002262Y008335D02*
X001828Y008335D01*
X001946Y008216D02*
X002380Y008216D01*
X002499Y008098D02*
X002065Y008098D01*
X002183Y007979D02*
X002617Y007979D01*
X002967Y007913D02*
X004967Y007913D01*
X005467Y008413D01*
X005467Y011413D01*
X004860Y012019D01*
X004636Y012019D01*
X004790Y011653D02*
X004944Y011653D01*
X004895Y011535D02*
X005062Y011535D01*
X004990Y011416D02*
X005181Y011416D01*
X005267Y011298D02*
X005033Y011298D01*
X005033Y011179D02*
X005267Y011179D01*
X005267Y011061D02*
X004995Y011061D01*
X004908Y010942D02*
X005267Y010942D01*
X005267Y010824D02*
X004760Y010824D01*
X004938Y010705D02*
X005267Y010705D01*
X005917Y010705D02*
X012996Y010705D01*
X012926Y010586D02*
X005917Y010586D01*
X005917Y010468D02*
X012900Y010468D01*
X012906Y010349D02*
X005917Y010349D01*
X005917Y010231D02*
X012956Y010231D01*
X012958Y009875D02*
X005917Y009875D01*
X005917Y009757D02*
X012909Y009757D01*
X012900Y009638D02*
X005917Y009638D01*
X005917Y009520D02*
X012924Y009520D01*
X012991Y009401D02*
X005917Y009401D01*
X005917Y009283D02*
X013162Y009283D01*
X013030Y009164D02*
X005917Y009164D01*
X005917Y009046D02*
X012940Y009046D01*
X012900Y008927D02*
X005917Y008927D01*
X005917Y008809D02*
X012900Y008809D01*
X012941Y008690D02*
X005917Y008690D01*
X005917Y008572D02*
X013033Y008572D01*
X013562Y008572D02*
X013717Y008572D01*
X013717Y008690D02*
X013653Y008690D01*
X013695Y008809D02*
X013717Y008809D01*
X013717Y008927D02*
X013695Y008927D01*
X013717Y009046D02*
X013655Y009046D01*
X013717Y009164D02*
X013565Y009164D01*
X013433Y009283D02*
X013717Y009283D01*
X013717Y009401D02*
X013604Y009401D01*
X013671Y009520D02*
X013717Y009520D01*
X013717Y009638D02*
X013695Y009638D01*
X013686Y009757D02*
X013717Y009757D01*
X013717Y009875D02*
X013637Y009875D01*
X013523Y009994D02*
X013386Y010051D01*
X013523Y010108D01*
X013639Y010231D02*
X013717Y010231D01*
X013717Y010349D02*
X013688Y010349D01*
X013695Y010468D02*
X013717Y010468D01*
X013717Y010586D02*
X013669Y010586D01*
X013717Y010705D02*
X013599Y010705D01*
X013717Y010824D02*
X013421Y010824D01*
X013570Y010942D02*
X013717Y010942D01*
X013717Y011061D02*
X013657Y011061D01*
X013695Y011179D02*
X013717Y011179D01*
X013717Y011298D02*
X013695Y011298D01*
X013717Y011416D02*
X013651Y011416D01*
X013717Y011535D02*
X013557Y011535D01*
X013452Y011653D02*
X013717Y011653D01*
X013717Y011772D02*
X013612Y011772D01*
X013674Y011890D02*
X013717Y011890D01*
X013717Y012009D02*
X013695Y012009D01*
X013683Y012127D02*
X013717Y012127D01*
X013717Y012246D02*
X013633Y012246D01*
X013717Y012364D02*
X013504Y012364D01*
X013535Y012483D02*
X013717Y012483D01*
X013717Y012601D02*
X013642Y012601D01*
X013691Y012720D02*
X013717Y012720D01*
X013717Y012838D02*
X013695Y012838D01*
X013717Y012957D02*
X013666Y012957D01*
X013717Y013075D02*
X013591Y013075D01*
X013717Y013194D02*
X013402Y013194D01*
X013193Y013194D02*
X004741Y013194D01*
X004916Y013312D02*
X013017Y013312D01*
X012935Y013431D02*
X004998Y013431D01*
X005033Y013549D02*
X012900Y013549D01*
X012900Y013668D02*
X005033Y013668D01*
X004987Y013786D02*
X012947Y013786D01*
X013046Y013905D02*
X004888Y013905D01*
X004809Y014023D02*
X013124Y014023D01*
X012975Y014142D02*
X004958Y014142D01*
X005016Y014260D02*
X012917Y014260D01*
X012900Y014379D02*
X005033Y014379D01*
X005018Y014497D02*
X012915Y014497D01*
X012969Y014616D02*
X004964Y014616D01*
X004824Y014734D02*
X013110Y014734D01*
X013052Y014853D02*
X004882Y014853D01*
X004984Y014971D02*
X012949Y014971D01*
X012900Y015090D02*
X005033Y015090D01*
X005033Y015208D02*
X012900Y015208D01*
X012932Y015327D02*
X005001Y015327D01*
X004922Y015445D02*
X013011Y015445D01*
X013583Y015445D02*
X013717Y015445D01*
X013717Y015327D02*
X013662Y015327D01*
X013695Y015208D02*
X013717Y015208D01*
X013717Y015090D02*
X013695Y015090D01*
X013717Y014971D02*
X013646Y014971D01*
X013717Y014853D02*
X013543Y014853D01*
X013485Y014734D02*
X013717Y014734D01*
X013717Y014616D02*
X013625Y014616D01*
X013680Y014497D02*
X013717Y014497D01*
X013717Y014379D02*
X013695Y014379D01*
X013677Y014260D02*
X013717Y014260D01*
X013717Y014142D02*
X013620Y014142D01*
X013717Y014023D02*
X013471Y014023D01*
X013549Y013905D02*
X013717Y013905D01*
X013717Y013786D02*
X013648Y013786D01*
X013695Y013668D02*
X013717Y013668D01*
X013717Y013549D02*
X013695Y013549D01*
X013717Y013431D02*
X013660Y013431D01*
X013717Y013312D02*
X013577Y013312D01*
X013004Y013075D02*
X004930Y013075D01*
X004636Y012807D02*
X005323Y012807D01*
X005717Y012413D01*
X005717Y008413D01*
X004967Y007663D01*
X002217Y007663D01*
X001467Y008413D01*
X001467Y010913D01*
X001143Y010586D02*
X000877Y010586D01*
X000877Y010468D02*
X001267Y010468D01*
X001267Y010349D02*
X000877Y010349D01*
X000877Y010231D02*
X001267Y010231D01*
X001267Y010112D02*
X000877Y010112D01*
X000877Y009994D02*
X001267Y009994D01*
X001267Y009875D02*
X000877Y009875D01*
X000877Y009757D02*
X001267Y009757D01*
X001267Y009638D02*
X000877Y009638D01*
X000877Y009520D02*
X001267Y009520D01*
X001267Y009401D02*
X000877Y009401D01*
X000877Y009283D02*
X001267Y009283D01*
X001267Y009164D02*
X000877Y009164D01*
X000877Y009046D02*
X001267Y009046D01*
X001267Y008927D02*
X000877Y008927D01*
X000877Y008809D02*
X001267Y008809D01*
X001267Y008690D02*
X000877Y008690D01*
X000877Y008572D02*
X001267Y008572D01*
X001267Y008453D02*
X000877Y008453D01*
X000877Y008335D02*
X001267Y008335D01*
X001380Y008216D02*
X000877Y008216D01*
X000877Y008098D02*
X001499Y008098D01*
X001617Y007979D02*
X000877Y007979D01*
X000877Y007861D02*
X001736Y007861D01*
X001854Y007742D02*
X000877Y007742D01*
X000877Y007624D02*
X001973Y007624D01*
X002091Y007505D02*
X000877Y007505D01*
X000877Y007387D02*
X013717Y007387D01*
X013717Y007505D02*
X005092Y007505D01*
X005211Y007624D02*
X013717Y007624D01*
X013717Y007742D02*
X005329Y007742D01*
X005448Y007861D02*
X013717Y007861D01*
X013717Y007979D02*
X005566Y007979D01*
X005685Y008098D02*
X013717Y008098D01*
X013717Y008216D02*
X005803Y008216D01*
X005917Y008335D02*
X013717Y008335D01*
X013717Y008453D02*
X005917Y008453D01*
X004500Y009283D02*
X004130Y009283D01*
X004248Y009164D02*
X004369Y009164D01*
X004329Y009401D02*
X004011Y009401D01*
X003893Y009520D02*
X004263Y009520D01*
X004238Y009638D02*
X003774Y009638D01*
X003656Y009757D02*
X004247Y009757D01*
X004296Y009875D02*
X003537Y009875D01*
X003419Y009994D02*
X004411Y009994D01*
X004406Y010112D02*
X003300Y010112D01*
X005154Y012009D02*
X005517Y012009D01*
X005517Y012127D02*
X005035Y012127D01*
X005012Y012151D02*
X005517Y011646D01*
X005517Y012330D01*
X005240Y012607D01*
X004983Y012607D01*
X004973Y012582D01*
X004861Y012470D01*
X004724Y012413D01*
X004861Y012356D01*
X004973Y012244D01*
X005012Y012151D01*
X004972Y012246D02*
X005517Y012246D01*
X005483Y012364D02*
X004842Y012364D01*
X004874Y012483D02*
X005364Y012483D01*
X005246Y012601D02*
X004981Y012601D01*
X005456Y012957D02*
X012929Y012957D01*
X012900Y012838D02*
X005574Y012838D01*
X005693Y012720D02*
X012903Y012720D01*
X012952Y012601D02*
X005811Y012601D01*
X005917Y012483D02*
X013059Y012483D01*
X013091Y012364D02*
X005917Y012364D01*
X005917Y012246D02*
X012961Y012246D01*
X012912Y012127D02*
X005917Y012127D01*
X005917Y012009D02*
X012900Y012009D01*
X012921Y011890D02*
X005917Y011890D01*
X005917Y011772D02*
X012983Y011772D01*
X013143Y011653D02*
X005917Y011653D01*
X005917Y011535D02*
X013038Y011535D01*
X012943Y011416D02*
X005917Y011416D01*
X005917Y011298D02*
X012900Y011298D01*
X012900Y011179D02*
X005917Y011179D01*
X005917Y011061D02*
X012938Y011061D01*
X013025Y010942D02*
X005917Y010942D01*
X005917Y010824D02*
X013174Y010824D01*
X013717Y007268D02*
X000877Y007268D01*
X000877Y007150D02*
X013717Y007150D01*
X005517Y011653D02*
X005509Y011653D01*
X005517Y011772D02*
X005391Y011772D01*
X005272Y011890D02*
X005517Y011890D01*
X004348Y015682D02*
X003769Y015682D01*
X003560Y016039D02*
X003677Y016156D01*
X001082Y011179D02*
X000877Y011179D01*
X000877Y011061D02*
X001030Y011061D01*
X001007Y010942D02*
X000877Y010942D01*
X000877Y010824D02*
X001007Y010824D01*
X001055Y010705D02*
X000877Y010705D01*
M02*
