G75*
G70*
%OFA0B0*%
%FSLAX24Y24*%
%IPPOS*%
%LPD*%
%AMOC8*
5,1,8,0,0,1.08239X$1,22.5*
%
%ADD10C,0.0080*%
%ADD11R,0.0220X0.0500*%
%ADD12R,0.0500X0.0220*%
%ADD13C,0.0000*%
%ADD14R,0.0900X0.2000*%
%ADD15R,0.0472X0.1654*%
%ADD16R,0.0551X0.1654*%
%ADD17R,0.0512X0.0591*%
D10*
X000196Y001085D02*
X009724Y001085D01*
X009724Y011580D01*
X007234Y013971D01*
X002686Y013971D01*
X000196Y011580D01*
X000196Y001085D01*
D11*
X004208Y006333D03*
X004523Y006333D03*
X004838Y006333D03*
X005153Y006333D03*
X005467Y006333D03*
X005782Y006333D03*
X006097Y006333D03*
X006412Y006333D03*
X006412Y009713D03*
X006097Y009713D03*
X005782Y009713D03*
X005467Y009713D03*
X005153Y009713D03*
X004838Y009713D03*
X004523Y009713D03*
X004208Y009713D03*
D12*
X003620Y009126D03*
X003620Y008811D03*
X003620Y008496D03*
X003620Y008181D03*
X003620Y007866D03*
X003620Y007551D03*
X003620Y007236D03*
X003620Y006921D03*
X007000Y006921D03*
X007000Y007236D03*
X007000Y007551D03*
X007000Y007866D03*
X007000Y008181D03*
X007000Y008496D03*
X007000Y008811D03*
X007000Y009126D03*
D13*
X007110Y013973D02*
X002710Y013973D01*
D14*
X003170Y012963D03*
X006650Y012963D03*
D15*
X005602Y004675D03*
X003633Y004675D03*
D16*
X004618Y004675D03*
D17*
X003495Y002098D03*
X002825Y002098D03*
X002825Y011098D03*
X003495Y011098D03*
M02*
