G75*
G70*
%OFA0B0*%
%FSLAX24Y24*%
%IPPOS*%
%LPD*%
%AMOC8*
5,1,8,0,0,1.08239X$1,22.5*
%
%ADD10C,0.0080*%
%ADD11C,0.0060*%
%ADD12C,0.0030*%
%ADD13C,0.0000*%
%ADD14C,0.0050*%
%ADD15C,0.0040*%
D10*
X000196Y001085D02*
X009724Y001085D01*
X009724Y011580D01*
X007234Y013971D01*
X002686Y013971D01*
X000196Y011580D01*
X000196Y001085D01*
D11*
X003930Y006644D02*
X006550Y006644D01*
X006690Y006783D01*
X006690Y009403D01*
X003930Y009403D01*
X003930Y006644D01*
X006249Y006943D02*
X006251Y006966D01*
X006257Y006989D01*
X006266Y007010D01*
X006279Y007030D01*
X006295Y007047D01*
X006313Y007061D01*
X006333Y007072D01*
X006355Y007080D01*
X006378Y007084D01*
X006402Y007084D01*
X006425Y007080D01*
X006447Y007072D01*
X006467Y007061D01*
X006485Y007047D01*
X006501Y007030D01*
X006514Y007010D01*
X006523Y006989D01*
X006529Y006966D01*
X006531Y006943D01*
X006529Y006920D01*
X006523Y006897D01*
X006514Y006876D01*
X006501Y006856D01*
X006485Y006839D01*
X006467Y006825D01*
X006447Y006814D01*
X006425Y006806D01*
X006402Y006802D01*
X006378Y006802D01*
X006355Y006806D01*
X006333Y006814D01*
X006313Y006825D01*
X006295Y006839D01*
X006279Y006856D01*
X006266Y006876D01*
X006257Y006897D01*
X006251Y006920D01*
X006249Y006943D01*
D12*
X006875Y009513D02*
X007069Y009513D01*
X006972Y009513D02*
X006972Y009804D01*
X007069Y009707D01*
X007170Y009755D02*
X007218Y009804D01*
X007315Y009804D01*
X007364Y009755D01*
X007364Y009562D01*
X007315Y009513D01*
X007218Y009513D01*
X007170Y009562D01*
X007463Y009513D02*
X007560Y009513D01*
X007512Y009513D02*
X007512Y009804D01*
X007560Y009804D02*
X007463Y009804D01*
D13*
X007110Y013973D02*
X002710Y013973D01*
D14*
X003200Y005266D02*
X003200Y004085D01*
X006035Y004085D01*
X006035Y005266D01*
X003200Y005266D01*
D15*
X003973Y002479D02*
X003973Y002402D01*
X004280Y002095D01*
X004280Y002018D01*
X004433Y002095D02*
X004510Y002018D01*
X004663Y002018D01*
X004740Y002095D01*
X004740Y002402D01*
X004663Y002479D01*
X004510Y002479D01*
X004433Y002402D01*
X004280Y002479D02*
X003973Y002479D01*
X006117Y004618D02*
X006423Y004618D01*
X006117Y004925D01*
X006117Y005002D01*
X006193Y005079D01*
X006347Y005079D01*
X006423Y005002D01*
X006577Y004618D02*
X006884Y004618D01*
X006884Y005079D01*
X007037Y004925D02*
X007037Y004618D01*
X007037Y004849D02*
X007344Y004849D01*
X007344Y004925D02*
X007344Y004618D01*
X007344Y004925D02*
X007191Y005079D01*
X007037Y004925D01*
X007498Y005079D02*
X007805Y005079D01*
X007958Y005079D02*
X008265Y004618D01*
X007958Y004618D02*
X008265Y005079D01*
X007651Y005079D02*
X007651Y004618D01*
X004690Y011018D02*
X004690Y011479D01*
X004460Y011479D01*
X004383Y011402D01*
X004383Y011249D01*
X004460Y011172D01*
X004690Y011172D01*
X004537Y011172D02*
X004383Y011018D01*
X004230Y011018D02*
X003923Y011018D01*
X004076Y011018D02*
X004076Y011479D01*
X004230Y011325D01*
M02*
