G75*
G70*
%OFA0B0*%
%FSLAX24Y24*%
%IPPOS*%
%LPD*%
%AMOC8*
5,1,8,0,0,1.08239X$1,22.5*
%
%ADD10C,0.0080*%
%ADD11C,0.0555*%
%ADD12C,0.0000*%
%ADD13R,0.0940X0.2040*%
%ADD14R,0.0552X0.0631*%
%ADD15C,0.0631*%
%ADD16R,0.0434X0.0138*%
%ADD17R,0.0512X0.0512*%
D10*
X000196Y001085D02*
X009724Y001085D01*
X009724Y011580D01*
X007234Y013971D01*
X002686Y013971D01*
X000196Y011580D01*
X000196Y001085D01*
D11*
X000629Y004355D03*
X000629Y005143D03*
X000629Y005930D03*
X000629Y006717D03*
X000629Y007505D03*
X000629Y008292D03*
X000629Y009080D03*
X000629Y009867D03*
X000629Y010654D03*
X000629Y011442D03*
X009291Y011442D03*
X009291Y010654D03*
X009291Y009867D03*
X009291Y009080D03*
X009291Y008292D03*
X009291Y007505D03*
X009291Y006717D03*
X009291Y005930D03*
X009291Y005143D03*
X009291Y004355D03*
D12*
X007110Y013973D02*
X002710Y013973D01*
D13*
X003170Y012963D03*
X004910Y012963D03*
X006650Y012963D03*
D14*
X006734Y011473D03*
X005986Y011473D03*
X003284Y007598D03*
X003034Y008598D03*
X002536Y007598D03*
X002286Y008598D03*
X002286Y009598D03*
X003034Y009598D03*
X003284Y006598D03*
X002536Y006598D03*
X004536Y005598D03*
X005284Y005598D03*
D15*
X008160Y012098D03*
D16*
X005992Y009742D03*
X005992Y009545D03*
X005992Y009348D03*
X005992Y009152D03*
X005992Y008955D03*
X004328Y008955D03*
X004328Y009152D03*
X004328Y009348D03*
X004328Y009545D03*
X004328Y009742D03*
D17*
X004536Y007821D03*
X004536Y006876D03*
X005284Y006876D03*
X005284Y007821D03*
M02*
