G75*
G70*
%OFA0B0*%
%FSLAX24Y24*%
%IPPOS*%
%LPD*%
%AMOC8*
5,1,8,0,0,1.08239X$1,22.5*
%
%ADD10C,0.0080*%
%ADD11C,0.0515*%
%ADD12C,0.0000*%
%ADD13R,0.0900X0.2000*%
%ADD14R,0.0512X0.0591*%
%ADD15C,0.0591*%
%ADD16R,0.0394X0.0098*%
%ADD17R,0.0472X0.0472*%
%ADD18C,0.0050*%
%ADD19C,0.0120*%
%ADD20C,0.0472*%
%ADD21C,0.0160*%
%ADD22C,0.0240*%
%ADD23C,0.0531*%
D10*
X000196Y001085D02*
X009724Y001085D01*
X009724Y011580D01*
X007234Y013971D01*
X002686Y013971D01*
X000196Y011580D01*
X000196Y001085D01*
D11*
X000629Y004355D03*
X000629Y005143D03*
X000629Y005930D03*
X000629Y006717D03*
X000629Y007505D03*
X000629Y008292D03*
X000629Y009080D03*
X000629Y009867D03*
X000629Y010654D03*
X000629Y011442D03*
X009291Y011442D03*
X009291Y010654D03*
X009291Y009867D03*
X009291Y009080D03*
X009291Y008292D03*
X009291Y007505D03*
X009291Y006717D03*
X009291Y005930D03*
X009291Y005143D03*
X009291Y004355D03*
D12*
X007110Y013973D02*
X002710Y013973D01*
D13*
X003170Y012963D03*
X004910Y012963D03*
X006650Y012963D03*
D14*
X006734Y011473D03*
X005986Y011473D03*
X003284Y007598D03*
X003034Y008598D03*
X002536Y007598D03*
X002286Y008598D03*
X002286Y009598D03*
X003034Y009598D03*
X003284Y006598D03*
X002536Y006598D03*
X004536Y005598D03*
X005284Y005598D03*
D15*
X008160Y012098D03*
D16*
X005992Y009742D03*
X005992Y009545D03*
X005992Y009348D03*
X005992Y009152D03*
X005992Y008955D03*
X004328Y008955D03*
X004328Y009152D03*
X004328Y009348D03*
X004328Y009545D03*
X004328Y009742D03*
D17*
X004536Y007821D03*
X004536Y006876D03*
X005284Y006876D03*
X005284Y007821D03*
D18*
X005205Y007644D02*
X005402Y007644D01*
X005402Y007447D01*
X005205Y007447D01*
X005205Y007644D01*
X005205Y007597D02*
X005402Y007597D01*
X005402Y007549D02*
X005205Y007549D01*
X005205Y007500D02*
X005402Y007500D01*
X005402Y007452D02*
X005205Y007452D01*
X005501Y007447D02*
X005501Y007250D01*
X004319Y007250D01*
X004319Y007447D01*
X005501Y007447D01*
X005501Y007403D02*
X004319Y007403D01*
X004319Y007355D02*
X005501Y007355D01*
X005501Y007306D02*
X004319Y007306D01*
X004319Y007258D02*
X005501Y007258D01*
D19*
X005629Y007173D02*
X005646Y007190D01*
X005646Y007507D01*
X005561Y007592D01*
X005547Y007592D01*
X005547Y007704D01*
X005462Y007789D01*
X005145Y007789D01*
X005060Y007704D01*
X005060Y007592D01*
X004892Y007592D01*
X004892Y008107D01*
X004822Y008177D01*
X004716Y008177D01*
X004716Y008821D01*
X004645Y008892D01*
X004645Y009054D01*
X004575Y009124D01*
X004413Y009124D01*
X004403Y009135D01*
X004254Y009135D01*
X004243Y009124D01*
X004082Y009124D01*
X004011Y009054D01*
X004011Y008856D01*
X004082Y008786D01*
X004243Y008786D01*
X004356Y008672D01*
X004356Y008177D01*
X004250Y008177D01*
X004180Y008107D01*
X004180Y007535D01*
X004191Y007524D01*
X004174Y007507D01*
X004174Y007190D01*
X004191Y007173D01*
X004180Y007162D01*
X004180Y006590D01*
X004250Y006520D01*
X004356Y006520D01*
X004356Y006028D01*
X002485Y006028D01*
X002340Y006173D01*
X002340Y008183D01*
X002592Y008183D01*
X002662Y008253D01*
X002662Y008943D01*
X002592Y009014D01*
X002526Y009014D01*
X002526Y009183D01*
X002592Y009183D01*
X002660Y009252D01*
X002728Y009183D01*
X003340Y009183D01*
X003410Y009253D01*
X003410Y009566D01*
X003493Y009648D01*
X004011Y009648D01*
X004011Y009528D01*
X003835Y009528D01*
X003480Y009173D01*
X003480Y008173D01*
X003321Y008014D01*
X002978Y008014D01*
X002908Y007943D01*
X002908Y007253D01*
X002978Y007183D01*
X003104Y007183D01*
X003104Y007014D01*
X002978Y007014D01*
X002908Y006943D01*
X002908Y006253D01*
X002978Y006183D01*
X003590Y006183D01*
X003660Y006253D01*
X003660Y006943D01*
X003590Y007014D01*
X003464Y007014D01*
X003464Y007183D01*
X003590Y007183D01*
X003660Y007253D01*
X003660Y007844D01*
X003735Y007918D01*
X003840Y008024D01*
X003840Y009024D01*
X003985Y009168D01*
X004403Y009168D01*
X004413Y009179D01*
X004575Y009179D01*
X004645Y009250D01*
X004645Y009345D01*
X004690Y009345D01*
X004993Y009648D01*
X005110Y009766D01*
X005110Y009959D01*
X005240Y010089D01*
X005379Y010146D01*
X005487Y010255D01*
X005546Y010397D01*
X005546Y010550D01*
X005487Y010692D01*
X005379Y010800D01*
X005237Y010859D01*
X005083Y010859D01*
X004941Y010800D01*
X004833Y010692D01*
X004774Y010550D01*
X004774Y010397D01*
X004798Y010338D01*
X002526Y010338D01*
X002526Y011020D01*
X002489Y011108D01*
X002113Y011484D01*
X002046Y011552D01*
X001958Y011588D01*
X000977Y011588D01*
X000949Y011656D01*
X000843Y011762D01*
X000725Y011810D01*
X002767Y013771D01*
X004273Y013771D01*
X004273Y011908D01*
X004293Y011888D01*
X004293Y011849D01*
X004363Y011778D01*
X005119Y011778D01*
X005568Y011330D01*
X005572Y011185D01*
X005563Y011177D01*
X005563Y011086D01*
X005627Y011021D01*
X006335Y011016D01*
X006335Y010808D01*
X006316Y010800D01*
X006208Y010692D01*
X006149Y010550D01*
X006149Y010397D01*
X006208Y010255D01*
X006246Y010217D01*
X006202Y010173D01*
X005960Y009931D01*
X005960Y009922D01*
X005917Y009922D01*
X005907Y009911D01*
X005745Y009911D01*
X005675Y009841D01*
X005675Y009643D01*
X005745Y009573D01*
X005907Y009573D01*
X005917Y009562D01*
X006128Y009562D01*
X006139Y009573D01*
X006238Y009573D01*
X006309Y009643D01*
X006309Y009714D01*
X006485Y009891D01*
X006732Y010137D01*
X006754Y010146D01*
X006862Y010255D01*
X006921Y010397D01*
X006921Y010550D01*
X006862Y010692D01*
X006754Y010800D01*
X006735Y010808D01*
X006735Y011058D01*
X007040Y011058D01*
X007110Y011128D01*
X007110Y011242D01*
X008965Y011242D01*
X008971Y011228D01*
X009077Y011122D01*
X009216Y011064D01*
X009366Y011064D01*
X009505Y011122D01*
X009524Y011141D01*
X009524Y010955D01*
X009505Y010974D01*
X009366Y011032D01*
X009216Y011032D01*
X009077Y010974D01*
X008971Y010868D01*
X008913Y010729D01*
X008913Y010579D01*
X008971Y010441D01*
X009077Y010334D01*
X009216Y010277D01*
X009366Y010277D01*
X009505Y010334D01*
X009524Y010354D01*
X009524Y010168D01*
X009505Y010187D01*
X009366Y010244D01*
X009216Y010244D01*
X009077Y010187D01*
X008971Y010081D01*
X008913Y009942D01*
X008913Y009792D01*
X008971Y009653D01*
X009077Y009547D01*
X009216Y009489D01*
X009366Y009489D01*
X009505Y009547D01*
X009524Y009566D01*
X009524Y009380D01*
X009505Y009400D01*
X009366Y009457D01*
X009216Y009457D01*
X009077Y009400D01*
X008971Y009293D01*
X008913Y009155D01*
X008913Y009004D01*
X008971Y008866D01*
X009077Y008760D01*
X009216Y008702D01*
X009366Y008702D01*
X009505Y008760D01*
X009524Y008779D01*
X009524Y008593D01*
X009505Y008612D01*
X009366Y008670D01*
X009216Y008670D01*
X009077Y008612D01*
X008971Y008506D01*
X008913Y008367D01*
X008913Y008217D01*
X008971Y008078D01*
X009077Y007972D01*
X009216Y007915D01*
X009366Y007915D01*
X009505Y007972D01*
X009524Y007991D01*
X009524Y007805D01*
X009505Y007825D01*
X009366Y007882D01*
X009216Y007882D01*
X009077Y007825D01*
X008971Y007719D01*
X008913Y007580D01*
X008913Y007430D01*
X008971Y007291D01*
X009077Y007185D01*
X009216Y007127D01*
X009366Y007127D01*
X009505Y007185D01*
X009524Y007204D01*
X009524Y007018D01*
X009505Y007037D01*
X009366Y007095D01*
X009216Y007095D01*
X009077Y007037D01*
X008971Y006931D01*
X008913Y006792D01*
X008913Y006642D01*
X008971Y006503D01*
X009077Y006397D01*
X009216Y006340D01*
X009366Y006340D01*
X009505Y006397D01*
X009524Y006417D01*
X009524Y006231D01*
X009505Y006250D01*
X009366Y006307D01*
X009216Y006307D01*
X009077Y006250D01*
X008971Y006144D01*
X008957Y006110D01*
X008167Y006110D01*
X006650Y004593D01*
X006612Y004609D01*
X006458Y004609D01*
X006316Y004550D01*
X006208Y004442D01*
X006149Y004300D01*
X006149Y004147D01*
X006208Y004005D01*
X006316Y003896D01*
X006458Y003838D01*
X006612Y003838D01*
X006754Y003896D01*
X006862Y004005D01*
X006921Y004147D01*
X006921Y004300D01*
X006905Y004339D01*
X008316Y005750D01*
X008957Y005750D01*
X008971Y005716D01*
X009077Y005610D01*
X009216Y005552D01*
X009366Y005552D01*
X009505Y005610D01*
X009524Y005629D01*
X009524Y005443D01*
X009505Y005463D01*
X009366Y005520D01*
X009216Y005520D01*
X009077Y005463D01*
X008971Y005356D01*
X008957Y005323D01*
X008630Y005323D01*
X008524Y005217D01*
X006960Y003653D01*
X006003Y003653D01*
X005987Y003692D01*
X005879Y003800D01*
X005737Y003859D01*
X005583Y003859D01*
X005441Y003800D01*
X005333Y003692D01*
X005274Y003550D01*
X005274Y003397D01*
X005333Y003255D01*
X005441Y003146D01*
X005583Y003088D01*
X005737Y003088D01*
X005879Y003146D01*
X005987Y003255D01*
X006003Y003293D01*
X007110Y003293D01*
X008779Y004963D01*
X008957Y004963D01*
X008971Y004929D01*
X009077Y004823D01*
X009216Y004765D01*
X009366Y004765D01*
X009505Y004823D01*
X009524Y004842D01*
X009524Y004656D01*
X009505Y004675D01*
X009366Y004733D01*
X009216Y004733D01*
X009077Y004675D01*
X008971Y004569D01*
X008913Y004430D01*
X008913Y004280D01*
X008971Y004141D01*
X009077Y004035D01*
X009216Y003978D01*
X009366Y003978D01*
X009505Y004035D01*
X009524Y004054D01*
X009524Y001285D01*
X000396Y001285D01*
X000396Y004842D01*
X000415Y004823D01*
X000554Y004765D01*
X000704Y004765D01*
X000843Y004823D01*
X000949Y004929D01*
X001007Y005067D01*
X001007Y005218D01*
X000949Y005356D01*
X000843Y005463D01*
X000704Y005520D01*
X000554Y005520D01*
X000415Y005463D01*
X000396Y005443D01*
X000396Y005629D01*
X000415Y005610D01*
X000554Y005552D01*
X000704Y005552D01*
X000843Y005610D01*
X000949Y005716D01*
X000980Y005790D01*
X000980Y005774D01*
X001230Y005524D01*
X001230Y002941D01*
X001191Y002925D01*
X001083Y002817D01*
X001024Y002675D01*
X001024Y002522D01*
X001083Y002380D01*
X001191Y002271D01*
X001333Y002213D01*
X001487Y002213D01*
X001629Y002271D01*
X001737Y002380D01*
X001796Y002522D01*
X001796Y002675D01*
X001772Y002731D01*
X002980Y001524D01*
X003085Y001418D01*
X005985Y001418D01*
X006795Y002229D01*
X006833Y002213D01*
X006987Y002213D01*
X007129Y002271D01*
X007237Y002380D01*
X007296Y002522D01*
X007296Y002675D01*
X007237Y002817D01*
X007129Y002925D01*
X006987Y002984D01*
X006833Y002984D01*
X006691Y002925D01*
X006583Y002817D01*
X006524Y002675D01*
X006524Y002522D01*
X006540Y002483D01*
X005835Y001778D01*
X003235Y001778D01*
X002845Y002168D01*
X005317Y002168D01*
X005333Y002130D01*
X005441Y002021D01*
X005583Y001963D01*
X005737Y001963D01*
X005879Y002021D01*
X005987Y002130D01*
X006046Y002272D01*
X006046Y002425D01*
X005987Y002567D01*
X005879Y002675D01*
X005737Y002734D01*
X005583Y002734D01*
X005441Y002675D01*
X005333Y002567D01*
X005317Y002528D01*
X002735Y002528D01*
X002090Y003173D01*
X002090Y005673D01*
X001985Y005778D01*
X001840Y005923D01*
X001840Y008673D01*
X001590Y008923D01*
X001590Y009923D01*
X001485Y010028D01*
X000985Y010528D01*
X001007Y010579D01*
X001007Y010729D01*
X000949Y010868D01*
X000843Y010974D01*
X000704Y011032D01*
X000554Y011032D01*
X000415Y010974D01*
X000396Y010955D01*
X000396Y011141D01*
X000415Y011122D01*
X000554Y011064D01*
X000704Y011064D01*
X000811Y011108D01*
X001811Y011108D01*
X002046Y010873D01*
X002046Y010014D01*
X001980Y010014D01*
X001910Y009943D01*
X001910Y009253D01*
X001980Y009183D01*
X002046Y009183D01*
X002046Y009014D01*
X001980Y009014D01*
X001910Y008943D01*
X001910Y008253D01*
X001980Y008184D01*
X001980Y006024D01*
X002230Y005774D01*
X002335Y005668D01*
X004160Y005668D01*
X004160Y005253D01*
X004230Y005183D01*
X004842Y005183D01*
X004912Y005253D01*
X004912Y005943D01*
X004842Y006014D01*
X004716Y006014D01*
X004716Y006520D01*
X004822Y006520D01*
X004892Y006590D01*
X004892Y007105D01*
X004928Y007105D01*
X004928Y006590D01*
X004998Y006520D01*
X005570Y006520D01*
X005640Y006590D01*
X005640Y007162D01*
X005629Y007173D01*
X005640Y007142D02*
X005855Y007142D01*
X005855Y007260D02*
X005646Y007260D01*
X005660Y007348D02*
X005660Y007848D01*
X005312Y007848D01*
X005284Y007821D01*
X005284Y007974D01*
X005091Y007734D02*
X004892Y007734D01*
X004892Y007616D02*
X005060Y007616D01*
X004892Y007853D02*
X005855Y007853D01*
X005855Y007971D02*
X004892Y007971D01*
X004892Y008090D02*
X005789Y008090D01*
X005855Y008024D02*
X005855Y005423D01*
X005335Y004903D01*
X003235Y004903D01*
X003155Y004983D01*
X003171Y005022D01*
X003171Y005175D01*
X003112Y005317D01*
X003004Y005425D01*
X002862Y005484D01*
X002708Y005484D01*
X002566Y005425D01*
X002458Y005317D01*
X002399Y005175D01*
X002399Y005022D01*
X002458Y004880D01*
X002566Y004771D01*
X002708Y004713D01*
X002862Y004713D01*
X002900Y004729D01*
X003085Y004543D01*
X005485Y004543D01*
X006110Y005168D01*
X006215Y005274D01*
X006215Y008173D01*
X006110Y008278D01*
X005590Y008798D01*
X005590Y009149D01*
X005610Y009168D01*
X005675Y009168D01*
X005675Y008856D01*
X005745Y008786D01*
X005907Y008786D01*
X005917Y008775D01*
X006229Y008775D01*
X006480Y008524D01*
X006480Y005298D01*
X005460Y004278D01*
X002878Y004278D01*
X002862Y004317D01*
X002754Y004425D01*
X002612Y004484D01*
X002458Y004484D01*
X002316Y004425D01*
X002208Y004317D01*
X002149Y004175D01*
X002149Y004022D01*
X002208Y003880D01*
X002316Y003771D01*
X002458Y003713D01*
X002612Y003713D01*
X002754Y003771D01*
X002862Y003880D01*
X002878Y003918D01*
X005610Y003918D01*
X006735Y005043D01*
X006840Y005149D01*
X006840Y008673D01*
X006541Y008972D01*
X006788Y008972D01*
X007809Y009992D01*
X007879Y010021D01*
X007987Y010130D01*
X008046Y010272D01*
X008046Y010425D01*
X007987Y010567D01*
X007879Y010675D01*
X007737Y010734D01*
X007583Y010734D01*
X007441Y010675D01*
X007333Y010567D01*
X007274Y010425D01*
X007274Y010272D01*
X007333Y010130D01*
X007385Y010078D01*
X006639Y009332D01*
X006309Y009332D01*
X006309Y009447D01*
X006238Y009518D01*
X006077Y009518D01*
X006066Y009528D01*
X005460Y009528D01*
X005335Y009403D01*
X005230Y009298D01*
X005230Y008649D01*
X005855Y008024D01*
X006035Y008098D02*
X006035Y005348D01*
X005410Y004723D01*
X003160Y004723D01*
X002785Y005098D01*
X002566Y004772D02*
X002090Y004772D01*
X002090Y004890D02*
X002454Y004890D01*
X002405Y005009D02*
X002090Y005009D01*
X002090Y005127D02*
X002399Y005127D01*
X002429Y005246D02*
X002090Y005246D01*
X002090Y005364D02*
X002505Y005364D01*
X002705Y005483D02*
X002090Y005483D01*
X002090Y005601D02*
X004160Y005601D01*
X004160Y005483D02*
X002865Y005483D01*
X003065Y005364D02*
X004160Y005364D01*
X004168Y005246D02*
X003141Y005246D01*
X003171Y005127D02*
X005559Y005127D01*
X005441Y005009D02*
X003165Y005009D01*
X002975Y004653D02*
X002090Y004653D01*
X002090Y004535D02*
X005717Y004535D01*
X005835Y004653D02*
X005595Y004653D01*
X005713Y004772D02*
X005954Y004772D01*
X006072Y004890D02*
X005832Y004890D01*
X005950Y005009D02*
X006191Y005009D01*
X006309Y005127D02*
X006069Y005127D01*
X006110Y005168D02*
X006110Y005168D01*
X006187Y005246D02*
X006428Y005246D01*
X006480Y005364D02*
X006215Y005364D01*
X006215Y005483D02*
X006480Y005483D01*
X006480Y005601D02*
X006215Y005601D01*
X006215Y005720D02*
X006480Y005720D01*
X006480Y005838D02*
X006215Y005838D01*
X006215Y005957D02*
X006480Y005957D01*
X006480Y006075D02*
X006215Y006075D01*
X006215Y006194D02*
X006480Y006194D01*
X006480Y006312D02*
X006215Y006312D01*
X006215Y006431D02*
X006480Y006431D01*
X006480Y006549D02*
X006215Y006549D01*
X006215Y006668D02*
X006480Y006668D01*
X006480Y006786D02*
X006215Y006786D01*
X006215Y006905D02*
X006480Y006905D01*
X006480Y007023D02*
X006215Y007023D01*
X006215Y007142D02*
X006480Y007142D01*
X006480Y007260D02*
X006215Y007260D01*
X006215Y007379D02*
X006480Y007379D01*
X006480Y007497D02*
X006215Y007497D01*
X006215Y007616D02*
X006480Y007616D01*
X006480Y007734D02*
X006215Y007734D01*
X006215Y007853D02*
X006480Y007853D01*
X006480Y007971D02*
X006215Y007971D01*
X006215Y008090D02*
X006480Y008090D01*
X006480Y008208D02*
X006180Y008208D01*
X006061Y008327D02*
X006480Y008327D01*
X006480Y008445D02*
X005943Y008445D01*
X005824Y008564D02*
X006440Y008564D01*
X006321Y008682D02*
X005706Y008682D01*
X005730Y008801D02*
X005590Y008801D01*
X005590Y008919D02*
X005675Y008919D01*
X005675Y009038D02*
X005590Y009038D01*
X005598Y009156D02*
X005675Y009156D01*
X005535Y009348D02*
X005410Y009223D01*
X005410Y008723D01*
X006035Y008098D01*
X005855Y007734D02*
X005516Y007734D01*
X005547Y007616D02*
X005855Y007616D01*
X005855Y007497D02*
X005646Y007497D01*
X005646Y007379D02*
X005855Y007379D01*
X005855Y007023D02*
X005640Y007023D01*
X005640Y006905D02*
X005855Y006905D01*
X005855Y006786D02*
X005640Y006786D01*
X005640Y006668D02*
X005855Y006668D01*
X005855Y006549D02*
X005600Y006549D01*
X005855Y006431D02*
X004716Y006431D01*
X004716Y006312D02*
X005855Y006312D01*
X005855Y006194D02*
X004716Y006194D01*
X004716Y006075D02*
X005855Y006075D01*
X005855Y005957D02*
X004898Y005957D01*
X004912Y005838D02*
X005855Y005838D01*
X005855Y005720D02*
X004912Y005720D01*
X004912Y005601D02*
X005855Y005601D01*
X005855Y005483D02*
X004912Y005483D01*
X004912Y005364D02*
X005796Y005364D01*
X005678Y005246D02*
X004904Y005246D01*
X004536Y005598D02*
X004536Y005848D01*
X002410Y005848D01*
X002160Y006098D01*
X002160Y008472D01*
X002286Y008598D01*
X002526Y009038D02*
X003480Y009038D01*
X003480Y009156D02*
X002526Y009156D01*
X002662Y008919D02*
X003480Y008919D01*
X003480Y008801D02*
X002662Y008801D01*
X002662Y008682D02*
X003480Y008682D01*
X003480Y008564D02*
X002662Y008564D01*
X002662Y008445D02*
X003480Y008445D01*
X003480Y008327D02*
X002662Y008327D01*
X002617Y008208D02*
X003480Y008208D01*
X003397Y008090D02*
X002340Y008090D01*
X002340Y007971D02*
X002936Y007971D01*
X002908Y007853D02*
X002340Y007853D01*
X002340Y007734D02*
X002908Y007734D01*
X002908Y007616D02*
X002340Y007616D01*
X002340Y007497D02*
X002908Y007497D01*
X002908Y007379D02*
X002340Y007379D01*
X002340Y007260D02*
X002908Y007260D01*
X003104Y007142D02*
X002340Y007142D01*
X002340Y007023D02*
X003104Y007023D01*
X002908Y006905D02*
X002340Y006905D01*
X002340Y006786D02*
X002908Y006786D01*
X002908Y006668D02*
X002340Y006668D01*
X002340Y006549D02*
X002908Y006549D01*
X002908Y006431D02*
X002340Y006431D01*
X002340Y006312D02*
X002908Y006312D01*
X002968Y006194D02*
X002340Y006194D01*
X002438Y006075D02*
X004356Y006075D01*
X004356Y006194D02*
X003600Y006194D01*
X003660Y006312D02*
X004356Y006312D01*
X004356Y006431D02*
X003660Y006431D01*
X003660Y006549D02*
X004220Y006549D01*
X004180Y006668D02*
X003660Y006668D01*
X003660Y006786D02*
X004180Y006786D01*
X004180Y006905D02*
X003660Y006905D01*
X003464Y007023D02*
X004180Y007023D01*
X004180Y007142D02*
X003464Y007142D01*
X003660Y007260D02*
X004174Y007260D01*
X004174Y007379D02*
X003660Y007379D01*
X003660Y007497D02*
X004174Y007497D01*
X004180Y007616D02*
X003660Y007616D01*
X003660Y007734D02*
X004180Y007734D01*
X004180Y007853D02*
X003669Y007853D01*
X003788Y007971D02*
X004180Y007971D01*
X004180Y008090D02*
X003840Y008090D01*
X003840Y008208D02*
X004356Y008208D01*
X004356Y008327D02*
X003840Y008327D01*
X003840Y008445D02*
X004356Y008445D01*
X004356Y008564D02*
X003840Y008564D01*
X003840Y008682D02*
X004346Y008682D01*
X004536Y008747D02*
X004328Y008955D01*
X004328Y009152D02*
X004713Y009152D01*
X004645Y009038D02*
X005230Y009038D01*
X005230Y009156D02*
X003973Y009156D01*
X004011Y009038D02*
X003854Y009038D01*
X003840Y008919D02*
X004011Y008919D01*
X004066Y008801D02*
X003840Y008801D01*
X003660Y009098D02*
X003910Y009348D01*
X004328Y009348D01*
X004328Y009545D02*
X004607Y009545D01*
X004738Y009393D02*
X005325Y009393D01*
X005230Y009275D02*
X004645Y009275D01*
X004856Y009512D02*
X005444Y009512D01*
X005535Y009348D02*
X005992Y009348D01*
X005992Y009152D02*
X006713Y009152D01*
X007660Y010098D01*
X007660Y010348D01*
X007493Y010697D02*
X006857Y010697D01*
X006909Y010578D02*
X007344Y010578D01*
X007289Y010460D02*
X006921Y010460D01*
X006898Y010341D02*
X007274Y010341D01*
X007294Y010223D02*
X006830Y010223D01*
X006699Y010104D02*
X007358Y010104D01*
X007293Y009986D02*
X006580Y009986D01*
X006462Y009867D02*
X007174Y009867D01*
X007056Y009749D02*
X006343Y009749D01*
X006296Y009630D02*
X006937Y009630D01*
X006819Y009512D02*
X006244Y009512D01*
X006309Y009393D02*
X006700Y009393D01*
X006854Y009038D02*
X008913Y009038D01*
X008914Y009156D02*
X006973Y009156D01*
X007091Y009275D02*
X008963Y009275D01*
X009071Y009393D02*
X007210Y009393D01*
X007328Y009512D02*
X009161Y009512D01*
X008993Y009630D02*
X007447Y009630D01*
X007565Y009749D02*
X008931Y009749D01*
X008913Y009867D02*
X007684Y009867D01*
X007802Y009986D02*
X008931Y009986D01*
X008994Y010104D02*
X007962Y010104D01*
X008026Y010223D02*
X009164Y010223D01*
X009070Y010341D02*
X008046Y010341D01*
X008031Y010460D02*
X008963Y010460D01*
X008914Y010578D02*
X007976Y010578D01*
X007827Y010697D02*
X008913Y010697D01*
X008949Y010815D02*
X006735Y010815D01*
X006735Y010934D02*
X009036Y010934D01*
X009028Y011171D02*
X007110Y011171D01*
X007110Y011642D02*
X007110Y011818D01*
X007040Y011889D01*
X006470Y011889D01*
X006427Y011931D01*
X005683Y011931D01*
X005565Y012049D01*
X005565Y013771D01*
X007153Y013771D01*
X009195Y011810D01*
X009077Y011762D01*
X008971Y011656D01*
X008965Y011642D01*
X008360Y011642D01*
X008360Y011732D01*
X008395Y011746D01*
X008512Y011863D01*
X008575Y012016D01*
X008575Y012181D01*
X008512Y012334D01*
X008395Y012450D01*
X008243Y012514D01*
X008077Y012514D01*
X007925Y012450D01*
X007808Y012334D01*
X007745Y012181D01*
X007745Y012016D01*
X007808Y011863D01*
X007925Y011746D01*
X007960Y011732D01*
X007960Y011642D01*
X007110Y011642D01*
X007110Y011645D02*
X007960Y011645D01*
X007908Y011763D02*
X007110Y011763D01*
X007046Y011882D02*
X007800Y011882D01*
X007751Y012000D02*
X005614Y012000D01*
X005565Y012119D02*
X007745Y012119D01*
X007768Y012237D02*
X005565Y012237D01*
X005565Y012356D02*
X007830Y012356D01*
X007983Y012474D02*
X005565Y012474D01*
X005565Y012593D02*
X008380Y012593D01*
X008337Y012474D02*
X008503Y012474D01*
X008490Y012356D02*
X008627Y012356D01*
X008552Y012237D02*
X008750Y012237D01*
X008873Y012119D02*
X008575Y012119D01*
X008569Y012000D02*
X008997Y012000D01*
X009120Y011882D02*
X008520Y011882D01*
X008412Y011763D02*
X009081Y011763D01*
X008966Y011645D02*
X008360Y011645D01*
X008257Y012711D02*
X005565Y012711D01*
X005565Y012830D02*
X008133Y012830D01*
X008010Y012948D02*
X005565Y012948D01*
X005565Y013067D02*
X007886Y013067D01*
X007763Y013185D02*
X005565Y013185D01*
X005565Y013304D02*
X007640Y013304D01*
X007516Y013422D02*
X005565Y013422D01*
X005565Y013541D02*
X007393Y013541D01*
X007270Y013659D02*
X005565Y013659D01*
X005134Y011763D02*
X000839Y011763D01*
X000800Y011882D02*
X004293Y011882D01*
X004273Y012000D02*
X000923Y012000D01*
X001047Y012119D02*
X004273Y012119D01*
X004273Y012237D02*
X001170Y012237D01*
X001293Y012356D02*
X004273Y012356D01*
X004273Y012474D02*
X001417Y012474D01*
X001540Y012593D02*
X004273Y012593D01*
X004273Y012711D02*
X001663Y012711D01*
X001787Y012830D02*
X004273Y012830D01*
X004273Y012948D02*
X001910Y012948D01*
X002034Y013067D02*
X004273Y013067D01*
X004273Y013185D02*
X002157Y013185D01*
X002280Y013304D02*
X004273Y013304D01*
X004273Y013422D02*
X002404Y013422D01*
X002527Y013541D02*
X004273Y013541D01*
X004273Y013659D02*
X002650Y013659D01*
X003170Y012963D02*
X003170Y012588D01*
X002427Y011171D02*
X005563Y011171D01*
X005569Y011289D02*
X002308Y011289D01*
X002190Y011408D02*
X005490Y011408D01*
X005371Y011526D02*
X002071Y011526D01*
X001867Y011052D02*
X000396Y011052D01*
X000629Y010654D02*
X000629Y010629D01*
X001410Y009848D01*
X001410Y008848D01*
X001660Y008598D01*
X001660Y005848D01*
X001910Y005598D01*
X001910Y003098D01*
X002660Y002348D01*
X005660Y002348D01*
X005915Y002639D02*
X006524Y002639D01*
X006525Y002520D02*
X006006Y002520D01*
X006046Y002402D02*
X006459Y002402D01*
X006340Y002283D02*
X006046Y002283D01*
X006002Y002165D02*
X006222Y002165D01*
X006103Y002046D02*
X005904Y002046D01*
X005985Y001928D02*
X003085Y001928D01*
X002967Y002046D02*
X005416Y002046D01*
X005318Y002165D02*
X002848Y002165D01*
X002694Y001809D02*
X000396Y001809D01*
X000396Y001691D02*
X002813Y001691D01*
X002931Y001572D02*
X000396Y001572D01*
X000396Y001454D02*
X003050Y001454D01*
X003160Y001598D02*
X005910Y001598D01*
X006910Y002598D01*
X007141Y002283D02*
X009524Y002283D01*
X009524Y002165D02*
X006731Y002165D01*
X006613Y002046D02*
X009524Y002046D01*
X009524Y001928D02*
X006494Y001928D01*
X006376Y001809D02*
X009524Y001809D01*
X009524Y001691D02*
X006257Y001691D01*
X006139Y001572D02*
X009524Y001572D01*
X009524Y001454D02*
X006020Y001454D01*
X005866Y001809D02*
X003204Y001809D01*
X003160Y001598D02*
X001660Y003098D01*
X001660Y005598D01*
X001410Y005848D01*
X001410Y008598D01*
X001160Y008848D01*
X001160Y009336D01*
X000629Y009867D01*
X001053Y010460D02*
X002046Y010460D01*
X002046Y010578D02*
X001006Y010578D01*
X001007Y010697D02*
X002046Y010697D01*
X002046Y010815D02*
X000971Y010815D01*
X000884Y010934D02*
X001985Y010934D01*
X002046Y010341D02*
X001172Y010341D01*
X001290Y010223D02*
X002046Y010223D01*
X002046Y010104D02*
X001409Y010104D01*
X001527Y009986D02*
X001953Y009986D01*
X001910Y009867D02*
X001590Y009867D01*
X001590Y009749D02*
X001910Y009749D01*
X001910Y009630D02*
X001590Y009630D01*
X001590Y009512D02*
X001910Y009512D01*
X001910Y009393D02*
X001590Y009393D01*
X001590Y009275D02*
X001910Y009275D01*
X002046Y009156D02*
X001590Y009156D01*
X001590Y009038D02*
X002046Y009038D01*
X001910Y008919D02*
X001594Y008919D01*
X001712Y008801D02*
X001910Y008801D01*
X001910Y008682D02*
X001831Y008682D01*
X001840Y008564D02*
X001910Y008564D01*
X001910Y008445D02*
X001840Y008445D01*
X001840Y008327D02*
X001910Y008327D01*
X001955Y008208D02*
X001840Y008208D01*
X001840Y008090D02*
X001980Y008090D01*
X001980Y007971D02*
X001840Y007971D01*
X001840Y007853D02*
X001980Y007853D01*
X001980Y007734D02*
X001840Y007734D01*
X001840Y007616D02*
X001980Y007616D01*
X001980Y007497D02*
X001840Y007497D01*
X001840Y007379D02*
X001980Y007379D01*
X001980Y007260D02*
X001840Y007260D01*
X001840Y007142D02*
X001980Y007142D01*
X001980Y007023D02*
X001840Y007023D01*
X001840Y006905D02*
X001980Y006905D01*
X001980Y006786D02*
X001840Y006786D01*
X001840Y006668D02*
X001980Y006668D01*
X001980Y006549D02*
X001840Y006549D01*
X001840Y006431D02*
X001980Y006431D01*
X001980Y006312D02*
X001840Y006312D01*
X001840Y006194D02*
X001980Y006194D01*
X001980Y006075D02*
X001840Y006075D01*
X001840Y005957D02*
X002047Y005957D01*
X002165Y005838D02*
X001925Y005838D01*
X002043Y005720D02*
X002284Y005720D01*
X002307Y004416D02*
X002090Y004416D01*
X002090Y004298D02*
X002200Y004298D01*
X002151Y004179D02*
X002090Y004179D01*
X002090Y004061D02*
X002149Y004061D01*
X002182Y003942D02*
X002090Y003942D01*
X002090Y003824D02*
X002264Y003824D01*
X002090Y003705D02*
X005346Y003705D01*
X005289Y003587D02*
X002090Y003587D01*
X002090Y003468D02*
X005274Y003468D01*
X005294Y003350D02*
X002090Y003350D01*
X002090Y003231D02*
X005356Y003231D01*
X005522Y003113D02*
X002150Y003113D01*
X002269Y002994D02*
X009524Y002994D01*
X009524Y002876D02*
X007178Y002876D01*
X007262Y002757D02*
X009524Y002757D01*
X009524Y002639D02*
X007296Y002639D01*
X007295Y002520D02*
X009524Y002520D01*
X009524Y002402D02*
X007246Y002402D01*
X007166Y003350D02*
X009524Y003350D01*
X009524Y003468D02*
X007285Y003468D01*
X007403Y003587D02*
X009524Y003587D01*
X009524Y003705D02*
X007522Y003705D01*
X007640Y003824D02*
X009524Y003824D01*
X009524Y003942D02*
X007759Y003942D01*
X007877Y004061D02*
X009051Y004061D01*
X008955Y004179D02*
X007996Y004179D01*
X008114Y004298D02*
X008913Y004298D01*
X008913Y004416D02*
X008233Y004416D01*
X008351Y004535D02*
X008957Y004535D01*
X009055Y004653D02*
X008470Y004653D01*
X008588Y004772D02*
X009199Y004772D01*
X009382Y004772D02*
X009524Y004772D01*
X009291Y005143D02*
X008704Y005143D01*
X007035Y003473D01*
X005660Y003473D01*
X005798Y003113D02*
X009524Y003113D01*
X009524Y003231D02*
X005964Y003231D01*
X005974Y003705D02*
X007012Y003705D01*
X007131Y003824D02*
X005822Y003824D01*
X005752Y004061D02*
X006185Y004061D01*
X006149Y004179D02*
X005871Y004179D01*
X005989Y004298D02*
X006149Y004298D01*
X006108Y004416D02*
X006197Y004416D01*
X006226Y004535D02*
X006301Y004535D01*
X006345Y004653D02*
X006710Y004653D01*
X006829Y004772D02*
X006463Y004772D01*
X006582Y004890D02*
X006947Y004890D01*
X006819Y005127D02*
X007184Y005127D01*
X007066Y005009D02*
X006700Y005009D01*
X006660Y005223D02*
X006660Y008598D01*
X006304Y008955D01*
X005992Y008955D01*
X005992Y009545D02*
X005713Y009545D01*
X005688Y009630D02*
X004975Y009630D01*
X004993Y009648D02*
X004993Y009648D01*
X005093Y009749D02*
X005675Y009749D01*
X005701Y009867D02*
X005110Y009867D01*
X005137Y009986D02*
X006015Y009986D01*
X006133Y010104D02*
X005277Y010104D01*
X005455Y010223D02*
X006240Y010223D01*
X006172Y010341D02*
X005523Y010341D01*
X005546Y010460D02*
X006149Y010460D01*
X006161Y010578D02*
X005534Y010578D01*
X005482Y010697D02*
X006213Y010697D01*
X006335Y010815D02*
X005342Y010815D01*
X005596Y011052D02*
X002513Y011052D01*
X002526Y010934D02*
X006335Y010934D01*
X006535Y011274D02*
X006734Y011473D01*
X006735Y011052D02*
X009524Y011052D01*
X009512Y010341D02*
X009524Y010341D01*
X009524Y010223D02*
X009418Y010223D01*
X009420Y009512D02*
X009524Y009512D01*
X009511Y009393D02*
X009524Y009393D01*
X009524Y008682D02*
X006831Y008682D01*
X006840Y008564D02*
X009029Y008564D01*
X008946Y008445D02*
X006840Y008445D01*
X006840Y008327D02*
X008913Y008327D01*
X008917Y008208D02*
X006840Y008208D01*
X006840Y008090D02*
X008966Y008090D01*
X009079Y007971D02*
X006840Y007971D01*
X006840Y007853D02*
X009145Y007853D01*
X008987Y007734D02*
X006840Y007734D01*
X006840Y007616D02*
X008928Y007616D01*
X008913Y007497D02*
X006840Y007497D01*
X006840Y007379D02*
X008934Y007379D01*
X009001Y007260D02*
X006840Y007260D01*
X006840Y007142D02*
X009180Y007142D01*
X009063Y007023D02*
X006840Y007023D01*
X006840Y006905D02*
X008960Y006905D01*
X008913Y006786D02*
X006840Y006786D01*
X006840Y006668D02*
X008913Y006668D01*
X008952Y006549D02*
X006840Y006549D01*
X006840Y006431D02*
X009043Y006431D01*
X009021Y006194D02*
X006840Y006194D01*
X006840Y006312D02*
X009524Y006312D01*
X009291Y005930D02*
X008241Y005930D01*
X006535Y004223D01*
X006270Y003942D02*
X005634Y003942D01*
X005498Y003824D02*
X002806Y003824D01*
X002535Y004098D02*
X005535Y004098D01*
X006660Y005223D01*
X006840Y005246D02*
X007303Y005246D01*
X007421Y005364D02*
X006840Y005364D01*
X006840Y005483D02*
X007540Y005483D01*
X007658Y005601D02*
X006840Y005601D01*
X006840Y005720D02*
X007777Y005720D01*
X007895Y005838D02*
X006840Y005838D01*
X006840Y005957D02*
X008014Y005957D01*
X008132Y006075D02*
X006840Y006075D01*
X007457Y004890D02*
X008197Y004890D01*
X008079Y004772D02*
X007338Y004772D01*
X007220Y004653D02*
X007960Y004653D01*
X007842Y004535D02*
X007101Y004535D01*
X006983Y004416D02*
X007723Y004416D01*
X007605Y004298D02*
X006921Y004298D01*
X006921Y004179D02*
X007486Y004179D01*
X007368Y004061D02*
X006885Y004061D01*
X006800Y003942D02*
X007249Y003942D01*
X007575Y005009D02*
X008316Y005009D01*
X008434Y005127D02*
X007694Y005127D01*
X007812Y005246D02*
X008553Y005246D01*
X008707Y004890D02*
X009009Y004890D01*
X008979Y005364D02*
X007931Y005364D01*
X008049Y005483D02*
X009126Y005483D01*
X009097Y005601D02*
X008168Y005601D01*
X008286Y005720D02*
X008969Y005720D01*
X009455Y005483D02*
X009524Y005483D01*
X009524Y005601D02*
X009484Y005601D01*
X009518Y007023D02*
X009524Y007023D01*
X009524Y007142D02*
X009401Y007142D01*
X009436Y007853D02*
X009524Y007853D01*
X009524Y007971D02*
X009503Y007971D01*
X009035Y008801D02*
X006712Y008801D01*
X006594Y008919D02*
X008948Y008919D01*
X006285Y009973D02*
X006054Y009742D01*
X005992Y009742D01*
X005315Y008564D02*
X004716Y008564D01*
X004716Y008682D02*
X005230Y008682D01*
X005230Y008801D02*
X004716Y008801D01*
X004645Y008919D02*
X005230Y008919D01*
X005433Y008445D02*
X004716Y008445D01*
X004716Y008327D02*
X005552Y008327D01*
X005670Y008208D02*
X004716Y008208D01*
X004536Y007821D02*
X004536Y008747D01*
X004328Y009742D02*
X004222Y009848D01*
X004011Y009630D02*
X003475Y009630D01*
X003410Y009512D02*
X003819Y009512D01*
X003700Y009393D02*
X003410Y009393D01*
X003410Y009275D02*
X003582Y009275D01*
X003660Y009098D02*
X003660Y008098D01*
X003284Y007722D01*
X003284Y007598D01*
X003284Y006598D01*
X003910Y007348D02*
X005660Y007348D01*
X004968Y006549D02*
X004852Y006549D01*
X004892Y006668D02*
X004928Y006668D01*
X004928Y006786D02*
X004892Y006786D01*
X004892Y006905D02*
X004928Y006905D01*
X004928Y007023D02*
X004892Y007023D01*
X004536Y006876D02*
X004536Y005848D01*
X005480Y004298D02*
X002870Y004298D01*
X002763Y004416D02*
X005598Y004416D01*
X005405Y002639D02*
X002624Y002639D01*
X002506Y002757D02*
X006558Y002757D01*
X006642Y002876D02*
X002387Y002876D01*
X002102Y002402D02*
X001746Y002402D01*
X001795Y002520D02*
X001983Y002520D01*
X001865Y002639D02*
X001796Y002639D01*
X001641Y002283D02*
X002220Y002283D01*
X002339Y002165D02*
X000396Y002165D01*
X000396Y002283D02*
X001179Y002283D01*
X001074Y002402D02*
X000396Y002402D01*
X000396Y002520D02*
X001025Y002520D01*
X001024Y002639D02*
X000396Y002639D01*
X000396Y002757D02*
X001058Y002757D01*
X001142Y002876D02*
X000396Y002876D01*
X000396Y002994D02*
X001230Y002994D01*
X001230Y003113D02*
X000396Y003113D01*
X000396Y003231D02*
X001230Y003231D01*
X001230Y003350D02*
X000396Y003350D01*
X000396Y003468D02*
X001230Y003468D01*
X001230Y003587D02*
X000396Y003587D01*
X000396Y003705D02*
X001230Y003705D01*
X001230Y003824D02*
X000396Y003824D01*
X000396Y003942D02*
X001230Y003942D01*
X001230Y004061D02*
X000396Y004061D01*
X000396Y004179D02*
X001230Y004179D01*
X001230Y004298D02*
X000396Y004298D01*
X000396Y004416D02*
X001230Y004416D01*
X001230Y004535D02*
X000396Y004535D01*
X000396Y004653D02*
X001230Y004653D01*
X001230Y004772D02*
X000721Y004772D01*
X000538Y004772D02*
X000396Y004772D01*
X000396Y005483D02*
X000465Y005483D01*
X000436Y005601D02*
X000396Y005601D01*
X000794Y005483D02*
X001230Y005483D01*
X001230Y005364D02*
X000941Y005364D01*
X000995Y005246D02*
X001230Y005246D01*
X001230Y005127D02*
X001007Y005127D01*
X000983Y005009D02*
X001230Y005009D01*
X001230Y004890D02*
X000911Y004890D01*
X000823Y005601D02*
X001152Y005601D01*
X001034Y005720D02*
X000951Y005720D01*
X001160Y005848D02*
X001410Y005598D01*
X001410Y002598D01*
X000396Y002046D02*
X002457Y002046D01*
X002576Y001928D02*
X000396Y001928D01*
X000396Y001335D02*
X009524Y001335D01*
X004797Y010341D02*
X002526Y010341D01*
X002526Y010460D02*
X004774Y010460D01*
X004786Y010578D02*
X002526Y010578D01*
X002526Y010697D02*
X004838Y010697D01*
X004978Y010815D02*
X002526Y010815D01*
X003178Y009742D02*
X003304Y009742D01*
X003178Y009742D02*
X003034Y009598D01*
X003034Y008598D02*
X002910Y008598D01*
X003034Y008598D02*
X003034Y008346D01*
X002536Y007848D02*
X002536Y007598D01*
X001160Y007848D02*
X001160Y005848D01*
X001160Y007848D02*
X000716Y008292D01*
X000629Y008292D01*
X000954Y011645D02*
X005253Y011645D01*
D20*
X007410Y012848D03*
X008410Y010848D03*
X002410Y012848D03*
X001410Y010598D03*
X000910Y001848D03*
D21*
X004607Y009545D02*
X004910Y009848D01*
X004910Y010098D01*
X004222Y009848D02*
X003410Y009848D01*
X003304Y009742D01*
X004910Y012174D02*
X004910Y012348D01*
X005785Y011473D01*
X005986Y011473D01*
X006535Y011274D02*
X006535Y010473D01*
X006535Y010223D01*
X006285Y009973D01*
X006160Y009848D01*
X006766Y011442D02*
X006734Y011473D01*
X006766Y011442D02*
X008160Y011442D01*
X008160Y012098D01*
X008160Y011442D02*
X009291Y011442D01*
X004910Y012348D02*
X004910Y012963D01*
D22*
X005160Y010473D02*
X005160Y010348D01*
X004910Y010098D01*
X002286Y010098D01*
X002286Y010972D01*
X001910Y011348D01*
X000723Y011348D01*
X000629Y011442D01*
X002286Y010098D02*
X002286Y009598D01*
X002286Y008598D01*
D23*
X002785Y005098D03*
X002535Y004098D03*
X001410Y002598D03*
X005660Y002348D03*
X005660Y003473D03*
X006535Y004223D03*
X006910Y002598D03*
X007660Y010348D03*
X006535Y010473D03*
X005160Y010473D03*
M02*
