%
M48
M72
T01C0.0315
%
T01
X910Y1848
X1410Y2598
X629Y4355
X629Y5143
X629Y5930
X629Y6717
X629Y7505
X629Y8292
X629Y9080
X629Y9867
X629Y10654
X629Y11442
X1410Y10598
X2410Y12848
X7410Y12848
X8410Y10848
X7660Y10348
X6535Y10473
X5160Y10473
X2785Y5098
X2535Y4098
X5660Y3473
X5660Y2348
X6535Y4223
X6910Y2598
X9291Y4355
X9291Y5143
X9291Y5930
X9291Y6717
X9291Y7505
X9291Y8292
X9291Y9080
X9291Y9867
X9291Y10654
X9291Y11442
M30
